HIERARCHY
ROOT hip
{
	OFFSET 0.000000 0.000000 0.000000 
	CHANNELS 6 Xposition Yposition Zposition Xrotation Yrotation Zrotation
	JOINT abdomen
	{
		OFFSET 0.000000 3.402643 0.000000 
		CHANNELS 3 Xrotation Yrotation Zrotation
		JOINT chest
		{
			OFFSET 0.000000 8.438565 -0.680529 
			CHANNELS 3 Xrotation Yrotation Zrotation
			JOINT neck
			{
				OFFSET 0.000000 9.885400 -0.272212 
				CHANNELS 3 Xrotation Yrotation Zrotation
				JOINT head
				{
					OFFSET 0.000000 3.130431 0.000000 
					CHANNELS 3 Xrotation Yrotation Zrotation
					End Site
					{
						OFFSET 0.000000 3.039250 0.000000 
					}
				}
			}
			JOINT rCollar
			{
				OFFSET -3.238290 6.669187 -0.816635 
				CHANNELS 3 Xrotation Yrotation Zrotation
				JOINT rShldr
				{
					OFFSET -2.515050 0.000000 0.000000 
					CHANNELS 3 Xrotation Yrotation Zrotation
					JOINT rForeArm
					{
						OFFSET -11.517700 0.000000 0.000000 
						CHANNELS 3 Xrotation Yrotation Zrotation
						JOINT rHand
						{
							OFFSET -9.026700 0.000000 0.000000 
							CHANNELS 3 Xrotation Yrotation Zrotation
							End Site
							{
								OFFSET -4.028470 0.000000 0.000000 
							}
						}
					}
				}
			}
			JOINT lCollar
			{
				OFFSET 3.238290 6.669187 -0.816635 
				CHANNELS 3 Xrotation Yrotation Zrotation
				JOINT lShldr
				{
					OFFSET 2.515050 0.000000 0.000000 
					CHANNELS 3 Xrotation Yrotation Zrotation
					JOINT lForeArm
					{
						OFFSET 11.517700 0.000000 0.000000 
						CHANNELS 3 Xrotation Yrotation Zrotation
						JOINT lHand
						{
							OFFSET 9.026700 0.000000 0.000000 
							CHANNELS 3 Xrotation Yrotation Zrotation
							End Site
							{
								OFFSET 4.028470 0.000000 0.000000 
							}
						}
					}
				}
			}
		}
	}
	JOINT rThigh
	{
		OFFSET -4.983750 -1.633274 1.361059 
		CHANNELS 3 Xrotation Yrotation Zrotation
		JOINT rShin
		{
			OFFSET 2.041588 -20.007561 0.000000 
			CHANNELS 3 Xrotation Yrotation Zrotation
			JOINT rFoot
			{
				OFFSET 0.000000 -19.190928 -1.224953 
				CHANNELS 3 Xrotation Yrotation Zrotation
				End Site
				{
					OFFSET 0.000000 -2.449906 4.627600 
				}
			}
		}
	}
	JOINT lThigh
	{
		OFFSET 4.983750 -1.633274 1.361059 
		CHANNELS 3 Xrotation Yrotation Zrotation
		JOINT lShin
		{
			OFFSET -2.041588 -20.007561 0.000000 
			CHANNELS 3 Xrotation Yrotation Zrotation
			JOINT lFoot
			{
				OFFSET 0.000000 -19.190928 -1.224953 
				CHANNELS 3 Xrotation Yrotation Zrotation
				End Site
				{
					OFFSET 0.000000 -2.449906 4.627600 
				}
			}
		}
	}
}
MOTION
Frames: 20
Frame Time: 0.029333
0.000000 44.324615 0.000000 0.000000 0.000000 0.000000 0.000000 0.000000 0.000000 0.000000 0.000000 0.000000 0.000000 0.000000 0.000000 0.000000 0.000000 0.000000 0.000000 0.000000 0.000000 0.000000 0.000000 0.000000 0.000000 0.000000 0.000000 0.000000 0.000000 0.000000 0.000000 0.000000 0.000000 0.000000 0.000000 0.000000 0.000000 0.000000 0.000000 0.000000 0.000000 0.000000 0.000000 0.000000 0.000000 0.000000 0.000000 0.000000 0.000000 0.000000 0.000000 0.000000 0.000000 0.000000 0.000000 0.000000 0.000000 0.000000 0.000000 0.000000 
-4.181602 40.187668 0.997098 128.283203 -51.273838 134.964294 0.338753 0.164941 -0.105351 1.135108 0.547635 -0.356126 0.000000 0.000000 0.000000 0.000000 0.000000 0.000000 0.835630 0.042260 11.256290 10.200130 19.241320 70.510239 0.277975 9.180114 -0.028767 0.000000 0.000000 0.000000 0.990816 -0.068423 -13.369620 21.023590 -60.977631 -28.299471 0.964958 -29.193800 0.271820 -0.000001 -0.000001 -0.000001 -65.848869 6.128025 -6.823453 22.581461 0.192895 -0.062480 -2.118178 1.604636 1.783292 -47.927979 -20.864880 1.917254 55.999321 -0.402225 0.275114 -26.726999 0.213116 -0.211623 
-3.811866 40.680294 2.397553 132.219299 -50.200211 138.921295 0.298681 0.036331 -0.325146 0.999125 0.114639 -1.085158 -0.000001 -0.000003 0.000003 0.000000 -0.000001 0.000000 0.922967 0.056269 12.444270 10.534300 15.884600 69.830727 0.168897 5.611774 -0.012262 0.000000 0.000004 0.000000 0.862811 -0.046407 -11.625180 16.163870 -60.844501 -32.717869 0.833886 -25.789829 0.208929 0.000000 0.000003 0.000001 -62.904240 8.923155 -5.511642 30.061119 0.249731 -0.099115 -2.160349 3.754154 2.652561 -46.387859 -12.046990 3.842391 51.959549 -0.384204 0.243316 -27.024830 0.862418 0.539473 
-3.498206 41.006100 3.767766 135.468903 -49.438168 142.215698 0.277264 -0.063728 -0.467863 0.923446 -0.221182 -1.558585 0.000000 0.000000 0.000000 0.000000 0.000000 0.000000 0.997304 0.069664 13.458720 10.475750 11.768880 69.007973 0.096604 3.217583 -0.005062 0.000000 0.000002 0.000001 0.736814 -0.028618 -9.916097 6.389026 -58.057949 -41.902809 0.677795 -21.460251 0.143365 -0.000001 0.000000 -0.000003 -60.720928 8.085934 -5.670249 36.190689 0.292434 -0.134453 -2.823035 5.404852 3.341773 -46.402889 -4.113026 4.952819 50.114609 -0.375244 0.229237 -26.383160 1.227486 0.932550 
-3.180954 41.183956 5.017443 137.995193 -49.295612 144.522705 0.281914 -0.124514 -0.506661 0.935987 -0.424780 -1.686567 0.000000 0.000000 0.000000 0.000000 0.000000 0.000000 1.052913 0.080575 14.219810 10.398470 8.452202 68.023407 0.069622 2.320689 -0.003151 0.000005 -0.000003 0.000002 0.611102 -0.014670 -8.217246 -6.563179 -51.022270 -53.828850 0.477050 -15.484060 0.075566 0.000000 0.000000 -0.000001 -59.294128 5.216367 -6.007194 40.678921 0.321196 -0.163120 -3.427604 5.051728 3.194981 -47.138988 0.652487 5.158336 50.054920 -0.374941 0.228785 -24.728300 0.694099 0.371713 
-2.800524 41.353554 6.192309 140.438705 -49.179230 146.499496 0.308327 -0.149611 -0.461611 1.023334 -0.508438 -1.535622 0.000001 -0.000001 -0.000002 -0.000001 -0.000001 -0.000001 1.090722 0.088433 14.738370 10.204360 6.567415 66.748009 0.077827 2.593307 -0.003670 0.000005 -0.000006 0.000000 0.482632 -0.004297 -6.486050 -15.567590 -41.234928 -62.117371 0.287557 -9.491449 0.030419 0.000001 -0.000001 0.000000 -58.280079 2.518745 -5.579724 44.528870 0.344003 -0.189441 -3.073615 2.637563 2.250993 -47.491520 2.902381 5.052813 49.794971 -0.373642 0.226826 -22.944920 -0.259838 -0.513498 
-2.419838 41.606987 7.299122 143.222000 -48.705338 148.681198 0.347996 -0.138497 -0.362299 1.156747 -0.470316 -1.204464 0.000001 0.000000 0.000000 0.000001 0.000000 0.000000 1.110610 0.092712 15.011550 9.535767 5.270743 64.972809 0.121858 4.056183 -0.007236 0.000000 0.000000 0.000000 0.362062 0.001899 -4.864547 -19.027849 -31.950279 -65.555077 0.155750 -5.178833 0.010618 0.000000 0.000000 0.000001 -56.443180 0.170083 -4.759521 47.303360 0.359328 -0.209328 -2.139736 0.324883 1.411718 -46.917400 4.769527 5.070107 48.178459 -0.365359 0.214785 -21.470480 -0.774691 -0.918285 
-2.045867 41.947250 8.265294 146.294800 -48.432915 150.895096 0.388984 -0.092423 -0.246169 1.295189 -0.314623 -0.818223 -0.000001 0.000000 0.000000 0.000000 0.000000 0.000000 1.118317 0.094393 15.117530 8.603261 3.299154 62.947182 0.249004 8.238579 -0.023744 0.000000 0.000001 -0.000001 0.263697 0.004418 -3.542953 -22.224100 -17.525270 -67.463951 0.088583 -2.952314 0.004331 0.000002 -0.000001 -0.000003 -52.206070 -1.980926 -3.764048 48.515339 0.365708 -0.218247 -2.033573 -0.028274 1.283650 -45.272129 6.840913 5.219965 45.308441 -0.349810 0.193981 -19.836800 -0.590757 -0.726195 
-1.597043 42.302059 9.083385 149.436203 -48.310558 153.015900 0.416976 -0.015782 -0.150819 1.389829 -0.056861 -0.502393 -0.000001 0.000000 -0.000001 0.000000 0.000000 0.000000 1.123372 0.095515 15.187070 7.578795 0.887834 60.967159 0.471773 15.320180 -0.074174 0.000000 0.000000 0.000001 0.201250 0.004844 -2.704123 -26.152451 2.331460 -68.124817 0.112846 -3.758143 0.006296 -0.000002 -0.000002 -0.000001 -46.157909 -3.884392 -2.387080 49.715771 0.371848 -0.227208 -2.387368 0.814740 1.551002 -43.171181 8.983505 5.596799 41.809101 -0.329477 0.169712 -17.953711 0.431111 0.085013 
-1.042182 42.622265 9.912468 152.255600 -47.469746 155.030197 0.417155 0.084146 -0.104914 1.391180 0.277575 -0.352199 0.000002 0.000000 0.000001 0.000000 0.000000 0.000000 1.136333 0.098392 15.365370 5.917500 0.301578 58.813480 0.669064 21.208080 -0.140131 -0.000001 0.000001 0.000002 0.182940 0.004788 -2.458143 -26.331739 16.156349 -67.755661 0.292507 -9.651492 0.031356 0.000003 -0.000001 -0.000003 -40.501511 -6.148336 -0.809434 52.222931 0.384054 -0.246329 -2.090736 1.516700 1.785247 -41.655800 10.980100 6.097336 38.050480 -0.306034 0.145083 -15.528940 2.068989 1.119967 
-0.386461 42.914707 10.830863 154.648895 -45.623016 156.824203 0.377381 0.198675 -0.121587 1.259642 0.659198 -0.410445 0.000002 0.000000 0.000001 0.000001 0.000000 0.000000 1.158467 0.103414 15.670170 3.288869 3.085351 56.307869 0.714219 22.495180 -0.157816 0.000000 -0.000004 -0.000002 0.207548 0.004840 -2.788649 -23.210840 24.210159 -66.403061 0.646046 -20.544531 0.131349 -0.000002 -0.000005 0.000000 -35.825081 -8.808573 0.838611 55.035240 0.396741 -0.268391 -1.853781 1.913586 1.938654 -40.727570 10.768960 6.300692 33.316250 -0.274285 0.116331 -11.612900 3.553317 1.874457 
0.367512 43.149792 11.729710 157.043106 -43.051865 158.505493 0.292111 0.319147 -0.196155 0.978046 1.059938 -0.660226 0.000001 0.000003 -0.000001 -0.000001 0.000000 0.000000 1.182234 0.108945 15.997860 -0.678822 8.335028 54.251148 0.596262 19.083710 -0.113586 -0.000002 -0.000002 0.000001 0.264201 0.004418 -3.549618 -21.059589 34.058239 -64.081367 1.069099 -31.744930 0.326379 -0.000001 -0.000002 0.000002 -31.073460 -10.324350 3.166108 56.846882 0.404325 -0.282915 -1.914467 2.300094 2.080409 -39.471729 7.659097 6.740219 26.063641 -0.221353 0.077631 -6.592831 3.827030 1.729153 
1.213448 43.222424 12.583302 159.323700 -40.299995 160.040298 0.165897 0.437527 -0.308215 0.562236 1.454925 -1.032427 0.000000 -0.000003 0.000001 0.000000 -0.000001 0.000000 1.194193 0.111786 16.162939 -6.000249 13.542780 53.203651 0.422418 13.785710 -0.060707 0.000002 -0.000001 -0.000002 0.336624 0.002765 -4.522565 -20.943180 41.962971 -60.128189 1.379781 -38.564651 0.510262 0.000000 0.000000 0.000000 -25.521370 -9.443200 6.322310 56.703209 0.403750 -0.281757 -1.577284 2.506878 2.168974 -37.593689 4.210767 7.886293 16.591869 -0.145640 0.037699 -2.539614 2.142318 0.766541 
2.136120 43.056629 13.509696 160.978806 -37.941521 161.178406 0.014609 0.546659 -0.427308 0.064572 1.821642 -1.425203 0.000000 0.000002 0.000000 0.000000 0.000002 0.000000 1.183063 0.109148 16.009340 -10.597020 16.835550 52.642719 0.374823 12.285960 -0.048944 0.000000 0.000001 0.000001 0.408938 -0.000103 -5.494638 -22.520821 44.554749 -53.992729 1.527739 -41.418140 0.607340 0.000001 -0.000003 0.000001 -19.684719 -6.721431 9.534532 53.937370 0.391935 -0.259716 -1.117179 2.165534 2.075679 -36.082100 2.004205 9.168379 8.287613 -0.074626 0.013360 -0.914167 0.059137 -0.025687 
3.088819 42.706226 14.566634 162.054398 -36.000507 162.013901 -0.136351 0.640888 -0.521371 -0.431928 2.140904 -1.732515 0.000000 0.000000 0.000000 0.000001 0.000000 0.000000 1.147177 0.100841 15.514660 -12.935530 17.986271 52.035999 0.547424 17.626230 -0.097206 -0.000002 0.000001 0.000002 0.469086 -0.003425 -6.303742 -24.811710 45.567890 -48.237961 1.619998 -43.078930 0.670523 0.000000 0.000000 0.000000 -15.006200 -3.302146 11.988860 49.821960 0.372405 -0.228016 -0.892448 2.143122 2.099211 -35.746010 0.642928 10.067600 3.738592 -0.034445 0.004460 -1.179065 -0.685442 -0.306546 
4.069192 42.271862 15.748899 162.830399 -34.325401 162.782898 -0.256626 0.717554 -0.566340 -0.828113 2.401373 -1.876055 0.000000 0.000004 0.000000 0.000000 0.000001 0.000000 1.096550 0.089686 14.818430 -14.360420 17.346130 51.676392 0.898149 27.483931 -0.239019 0.000000 0.000001 -0.000002 0.508605 -0.006070 -6.835824 -27.192579 46.507702 -43.627739 1.687321 -44.235950 0.717793 0.000002 0.000000 0.000004 -12.398470 0.351706 13.618170 46.096802 0.352817 -0.200612 -0.741516 3.410411 2.567457 -36.443249 -0.265007 10.608260 2.029341 -0.019189 0.001949 -1.570577 -0.962008 -0.394171 
5.133531 41.819874 17.057177 163.279297 -32.975697 163.463699 -0.317329 0.777968 -0.554048 -1.028948 2.604795 -1.830953 0.000000 0.000000 0.000000 0.000000 0.000000 0.000000 1.048073 0.079594 14.153530 -16.042749 16.125330 52.009430 1.342906 37.813160 -0.487054 -0.000001 0.000000 0.000001 0.521246 -0.007002 -7.005977 -28.691580 46.872520 -40.815670 1.702086 -44.483711 0.728285 -0.000004 0.000002 0.000002 -11.843120 3.699169 15.181180 43.199310 0.336367 -0.180198 -1.271057 4.862185 3.112690 -37.929199 -0.876017 10.950660 1.371429 -0.013309 0.001105 -1.211550 -1.850902 -0.664573 
6.277215 41.387943 18.480343 163.245499 -31.914114 163.965103 -0.297876 0.827029 -0.495010 -0.965635 2.766539 -1.634273 0.000000 -0.000001 0.000000 0.000000 -0.000001 0.000000 1.016098 0.073261 13.715720 -17.809271 16.171961 52.841351 1.797013 46.025688 -0.796872 0.000002 0.000000 -0.000002 0.502946 -0.005673 -6.759575 -28.885210 46.405102 -40.552219 1.655090 -43.687550 0.695050 0.000003 0.000000 0.000001 -12.643940 5.071975 16.339849 41.225849 0.324594 -0.166784 -5.116941 4.867717 3.095264 -39.857361 -1.257857 11.046320 1.109713 -0.010965 0.000793 -1.286220 -3.018235 -1.067186 
7.405159 40.983986 19.980719 162.933899 -31.019073 164.489105 -0.191691 0.871038 -0.414069 -0.614893 2.908859 -1.369841 0.000000 0.000004 -0.000001 0.000000 -0.000004 0.000001 1.003526 0.070843 13.543810 -19.790340 18.178600 53.865490 2.150534 51.088032 -1.065608 0.000002 -0.000002 -0.000001 0.453629 -0.002485 -6.095846 -27.348940 44.092300 -43.243851 1.493499 -40.779148 0.584399 -0.000001 0.000001 0.000002 -14.056750 3.748755 16.174290 40.156052 0.318019 -0.159684 -14.338710 2.986889 2.246424 -41.657749 -1.424371 10.759900 0.923957 -0.009302 0.000569 -2.305875 -3.396411 -1.276758 
8.407731 40.667847 21.491785 162.812897 -30.013861 165.312805 -0.009160 0.914934 -0.339831 -0.009520 3.050313 -1.133090 0.000000 0.000000 0.000000 0.000000 0.000000 0.000000 1.000054 0.070180 13.496370 -21.878790 22.079700 55.118721 2.171780 51.361149 -1.082358 0.000000 0.000000 0.000000 0.378704 0.001255 -5.088243 -24.403811 39.228630 -47.640629 1.188279 -34.498932 0.393403 0.000004 0.000003 -0.000002 -16.298700 1.600825 14.923710 40.181480 0.318181 -0.159851 -25.328251 0.855253 0.651187 -42.710571 -1.995963 10.336900 0.714466 -0.007418 0.000334 -2.451036 -2.120897 -0.856208 
